<svg width="56" height="53" viewBox="0 0 56 53" fill="none" xmlns="http://www.w3.org/2000/svg">
<g clip-path="url(#clip0_1_360)">
<path d="M49.7778 0H6.22222C2.79028 0 0 2.96938 0 6.62162V36.4189C0 40.0712 2.79028 43.0405 6.22222 43.0405H23.3333L22.2931 46.3514H15.5556C13.8347 46.3514 12.4444 47.8309 12.4444 49.6622C12.4444 51.4935 13.8347 52.973 15.5556 52.973H40.4444C42.1653 52.973 43.5556 51.4935 43.5556 49.6622C43.5556 47.8309 42.1653 46.3514 40.4444 46.3514H33.7069L32.6667 43.0405H49.7778C53.2097 43.0405 56 40.0712 56 36.4189V6.62162C56 2.96938 53.2097 0 49.7778 0ZM47.2374 38.2078C45.8344 38.2078 44.6969 36.9973 44.6969 35.5043C44.6969 34.0113 45.8344 32.8008 47.2374 32.8008C48.6403 32.8008 49.7778 34.0113 49.7778 35.5043C49.7778 36.9973 48.6403 38.2078 47.2374 38.2078ZM49.7778 29.7973H6.22222V6.62162H49.7778V29.7973Z" fill="black"/>
<path d="M17.0897 24.9718C15.9065 24.3035 14.9771 23.3785 14.3014 22.197C13.6257 21.0164 13.2883 19.6859 13.2883 18.2054C13.2883 16.7248 13.6257 15.3953 14.3014 14.2138C14.9761 13.0333 15.9056 12.1083 17.0897 11.4389C18.2729 10.7705 19.6068 10.4353 21.0914 10.4353C22.576 10.4353 23.9089 10.7695 25.0931 11.4389C26.2762 12.1083 27.2057 13.0322 27.8804 14.2138C28.5551 15.3953 28.8935 16.7248 28.8935 18.2054C28.8935 19.6859 28.5561 21.0154 27.8804 22.197C27.2047 23.3785 26.2762 24.3035 25.0931 24.9718C23.9099 25.6412 22.576 25.9754 21.0914 25.9754C19.6068 25.9754 18.2739 25.6412 17.0897 24.9718ZM23.0164 21.9414C23.591 21.5855 24.046 21.0847 24.3804 20.4371C24.7149 19.7894 24.8821 19.0465 24.8821 18.2064C24.8821 17.3663 24.7149 16.6234 24.3804 15.9757C24.046 15.3281 23.591 14.8273 23.0164 14.4714C22.4408 14.1155 21.7992 13.9375 21.0914 13.9375C20.3836 13.9375 19.741 14.1155 19.1664 14.4714C18.5908 14.8273 18.1368 15.3291 17.8024 15.9757C17.4679 16.6234 17.3007 17.3663 17.3007 18.2064C17.3007 19.0465 17.4679 19.7894 17.8024 20.4371C18.1368 21.0847 18.5908 21.5865 19.1664 21.9414C19.741 22.2973 20.3826 22.4753 21.0914 22.4753C21.8001 22.4753 22.4418 22.2973 23.0164 21.9414Z" fill="black"/>
<path d="M32.6026 25.5263C31.5332 25.2273 30.664 24.829 29.9951 24.3313L31.2989 21.215C31.9269 21.6558 32.6561 22.0117 33.4854 22.2817C34.3147 22.5518 35.1304 22.6873 35.9325 22.6873C37.4569 22.6873 38.2191 22.2817 38.2191 21.4706C38.2191 21.0443 38.0014 20.7277 37.5678 20.5208C37.1332 20.3149 36.4341 20.0976 35.4716 19.87C34.4148 19.6279 33.533 19.3682 32.8243 19.0909C32.1155 18.8137 31.5069 18.3688 30.9994 17.7573C30.491 17.1458 30.2372 16.3202 30.2372 15.2814C30.2372 14.371 30.4705 13.5495 30.9391 12.8159C31.4068 12.0834 32.1058 11.503 33.0353 11.0767C33.9647 10.6494 35.1041 10.4363 36.4546 10.4363C37.3772 10.4363 38.2862 10.547 39.1826 10.7674C40.078 10.9877 40.8675 11.3116 41.549 11.7389L40.326 14.8769C38.9891 14.1082 37.6912 13.7243 36.4351 13.7243C35.6457 13.7243 35.0711 13.8495 34.7104 14.0978C34.3497 14.3472 34.1689 14.671 34.1689 15.0693C34.1689 15.4677 34.3828 15.7667 34.8105 15.9653C35.2383 16.165 35.9266 16.3709 36.8765 16.584C37.946 16.8261 38.8316 17.0858 39.5336 17.3631C40.2355 17.6404 40.8441 18.0822 41.3585 18.6864C41.8728 19.2917 42.1304 20.1132 42.1304 21.1519C42.1304 22.0479 41.8961 22.8591 41.4285 23.5854C40.9598 24.3106 40.2579 24.8911 39.3226 25.3246C38.3864 25.7581 37.2498 25.9754 35.913 25.9754C34.7765 25.9754 33.673 25.8264 32.6036 25.5274L32.6026 25.5263Z" fill="black"/>
</g>
<defs>
<clipPath id="clip0_1_360">
<rect width="56" height="52.973" fill="white"/>
</clipPath>
</defs>
</svg>
