<?xml version="1.0" encoding="UTF-8"?><svg id="Layer_1" xmlns="http://www.w3.org/2000/svg" viewBox="0 0 216 72"><defs><style>.cls-1{fill:#ce0e2d;stroke-width:0px;}</style></defs><path class="cls-1" d="m57.75,48.37c-7.33,0-13.07-5.15-13.07-11.79s5.74-11.84,13.07-11.84,13.07,5.21,13.07,11.84-5.75,11.79-13.07,11.79Zm0-18.86c-4.65,0-8.32,3.11-8.32,7.08s3.67,7.03,8.32,7.03,8.32-3.06,8.32-7.03-3.68-7.08-8.32-7.08Z"/><path class="cls-1" d="m104.49,48.37c-2.64,0-4.77-2.19-4.77-4.86v-9.79c0-2.33-2.03-4.21-4.56-4.21s-4.49,1.88-4.49,4.21v14.65c-2.64,0-4.75-2.12-4.75-4.75v-9.9c0-2.33-2.04-4.21-4.56-4.21s-4.51,1.88-4.51,4.21v9.84c0,2.62-2.15,4.81-4.75,4.81v-14.65c0-4.96,4.15-8.97,9.26-8.97,2.76,0,5.25,1.13,6.93,2.97,1.69-1.84,4.16-2.97,6.88-2.97,5.16,0,9.32,4.01,9.32,8.97v14.65Z"/><path class="cls-1" d="m119.93,48.31c-1.24,0-2.43-.1-3.53-.35-2.46-.68-3.9-3.25-3.25-5.74.08-.3.19-.59.3-.85l.04-.04c1.33,1.48,3.52,2.22,6.44,2.22,4.35,0,7.77-3.07,7.77-6.94s-3.43-7.17-7.77-7.17-8.22,2.27-8.22,7.27v15.4c0,2.57-2.17,4.64-4.76,4.64v-20.04c0-6.93,5.46-12.02,12.99-12.02,3.31,0,6.43,1.23,8.81,3.41,2.37,2.22,3.71,5.25,3.71,8.51,0,6.54-5.49,11.69-12.52,11.69Z"/><path class="cls-1" d="m153.84,20.24h-10.17v28.13h-.22c-2.53,0-4.54-2.19-4.54-4.75v-23.37h-10.2c-2.57,0-4.64-2.13-4.64-4.7h34.46c0,2.57-2.09,4.7-4.7,4.7Z"/><path class="cls-1" d="m194.53,45.38l-2.52-5.43h-16.88l-2.5,5.57c-1.18,2.25-4.31,2.91-6.71,2.91l13.76-30.18c.77-1.71,2.17-2.72,3.77-2.72s3.04,1,3.81,2.72l13.61,29.81c-2.56.24-5.35-.52-6.34-2.69Zm-10.55-24.93l-6.75,14.84h12.75l-6.79-14.9.79.06Z"/><path class="cls-1" d="m39.34,24.4c-2.58-2.72-6.35-4.5-10.5-4.5-7.38,0-13.38,5.34-13.38,11.93s6,11.98,13.38,11.98c3.52,0,6.83-1.34,9.36-3.46,1.73-1.43,4.31-1.35,5.98.11-1.28,1.97-3,3.69-5.13,5.03-3.02,1.93-6.54,2.92-10.2,2.92-9.96,0-18.02-7.44-18.02-16.59S18.88,15.24,28.84,15.24c7.07,0,13.52,3.86,16.39,9.8-1.82,1.19-4.35,1.04-5.89-.64Z"/><path class="cls-1" d="m202.67,46.56c-1.37,0-2.5-1.02-2.5-2.25s1.13-2.25,2.5-2.25,2.5,1.01,2.5,2.25-1.12,2.25-2.5,2.25Zm0-3.98c-1.09,0-1.98.77-1.98,1.73s.89,1.75,1.98,1.75,1.99-.79,1.99-1.75-.91-1.73-1.99-1.73Zm.91,1.94c-.06.04-.14.07-.22.1,0,0,.15.18.62.74l-.09.08c-.2.18-.51.14-.67-.05-.52-.63-.58-.69-.58-.69h-.61v-.18c.03-.22.24-.42.47-.42h.3c.2,0,.37-.03.47-.1.09-.03.11-.1.11-.2,0-.06,0-.27-.58-.27h-.82v1.55c0,.26-.2.46-.49.46h-.12v-2.17c.03-.24.22-.43.46-.44h.96c1.08,0,1.18.61,1.18.86,0,.32-.15.57-.41.72Z"/><path class="cls-1" d="m160.05,15.55v28.21c0,2.53,2.18,4.6,4.76,4.6v-28.22c0-2.53-2.19-4.6-4.76-4.6Z"/></svg>