<svg width="72" height="57" viewBox="0 0 72 57" fill="none" xmlns="http://www.w3.org/2000/svg">
<g clip-path="url(#clip0_1_356)">
<path d="M32.4 7.10526C32.4 8.62623 31.9162 10.0251 31.095 11.1797L34.38 18.1184C35.4825 17.8853 36.63 17.7632 37.8 17.7632C41.8612 17.7632 45.5625 19.2397 48.4087 21.6711L57.645 14.9877C57.6225 14.7323 57.6 14.477 57.6 14.2105C57.6 10.2915 60.8287 7.10526 64.8 7.10526C68.7712 7.10526 72 10.2915 72 14.2105C72 18.1295 68.7712 21.3158 64.8 21.3158C63.765 21.3158 62.7862 21.1049 61.8975 20.7163L52.6725 27.3997C53.5275 29.3425 54 31.4963 54 33.75C54 35.4819 53.7187 37.1583 53.2012 38.7237L61.3013 43.5197C62.3363 42.9535 63.5287 42.6316 64.8 42.6316C68.7712 42.6316 72 45.8178 72 49.7368C72 53.6558 68.7712 56.8421 64.8 56.8421C60.8287 56.8421 57.6 53.6558 57.6 49.7368V49.6147L49.4887 44.8076C46.5412 47.8495 42.39 49.7368 37.8 49.7368C30.0937 49.7368 23.6363 44.419 22.005 37.3026H13.4325C12.1837 39.4231 9.86625 40.8553 7.2 40.8553C3.22875 40.8553 0 37.669 0 33.75C0 29.831 3.22875 26.6447 7.2 26.6447C9.86625 26.6447 12.195 28.0769 13.4325 30.1974H21.9937C22.8375 26.5337 24.9525 23.3586 27.855 21.1271L24.57 14.1883C20.8912 13.8664 18 10.8244 18 7.10526C18 3.18627 21.2287 0 25.2 0C29.1712 0 32.4 3.18627 32.4 7.10526ZM37.8 39.0789C40.7824 39.0789 43.2 36.6931 43.2 33.75C43.2 30.8069 40.7824 28.4211 37.8 28.4211C34.8176 28.4211 32.4 30.8069 32.4 33.75C32.4 36.6931 34.8176 39.0789 37.8 39.0789Z" fill="black"/>
</g>
<defs>
<clipPath id="clip0_1_356">
<rect width="72" height="56.8421" fill="white"/>
</clipPath>
</defs>
</svg>
