<svg width="72" height="58" viewBox="0 0 72 58" fill="none" xmlns="http://www.w3.org/2000/svg">
<g clip-path="url(#clip0_1_328)">
<path d="M28.8 7.2H43.2V14.4H28.8V7.2ZM27 0C24.0187 0 21.6 2.41875 21.6 5.4V16.2C21.6 19.1813 24.0187 21.6 27 21.6H32.4V25.2H3.6C1.60875 25.2 0 26.8088 0 28.8C0 30.7913 1.60875 32.4 3.6 32.4H14.4V36H9C6.01875 36 3.6 38.4188 3.6 41.4V52.2C3.6 55.1813 6.01875 57.6 9 57.6H27C29.9812 57.6 32.4 55.1813 32.4 52.2V41.4C32.4 38.4188 29.9812 36 27 36H21.6V32.4H50.4V36H45C42.0187 36 39.6 38.4188 39.6 41.4V52.2C39.6 55.1813 42.0187 57.6 45 57.6H63C65.9812 57.6 68.4 55.1813 68.4 52.2V41.4C68.4 38.4188 65.9812 36 63 36H57.6V32.4H68.4C70.3912 32.4 72 30.7913 72 28.8C72 26.8088 70.3912 25.2 68.4 25.2H39.6V21.6H45C47.9812 21.6 50.4 19.1813 50.4 16.2V5.4C50.4 2.41875 47.9812 0 45 0H27ZM10.8 50.4V43.2H25.2V50.4H10.8ZM46.8 43.2H61.2V50.4H46.8V43.2Z" fill="black"/>
</g>
<defs>
<clipPath id="clip0_1_328">
<rect width="72" height="57.6" fill="white"/>
</clipPath>
</defs>
</svg>
