<?xml version="1.0" encoding="UTF-8"?><svg id="Layer_1" xmlns="http://www.w3.org/2000/svg" width="56" height="44.81" xmlns:xlink="http://www.w3.org/1999/xlink" viewBox="0 0 56 44.81"><defs><style>.cls-1,.cls-2{stroke-width:0px;}.cls-2{fill:none;}.cls-3{clip-path:url(#clippath);}</style><clipPath id="clippath"><rect class="cls-2" width="56" height="44.8"/></clipPath></defs><g class="cls-3"><path class="cls-1" d="m19.6,22.4c6.19,0,11.2-5.01,11.2-11.2S25.79,0,19.6,0s-11.2,5.01-11.2,11.2,5.01,11.2,11.2,11.2Zm-4,4.2c-8.62,0-15.6,6.98-15.6,15.6,0,1.44,1.16,2.6,2.6,2.6h34c.16,0,.31-.02.46-.04-6.68-4.82-8.73-12.34-9.02-17.52-1.41-.42-2.9-.64-4.44-.64h-8.01.01Zm27.02-6.85l-10.5,4.2c-.8.32-1.32,1.09-1.32,1.95,0,5.54,2.27,14.77,11.79,18.74.52.22,1.1.22,1.62,0,9.52-3.97,11.79-13.2,11.79-18.74,0-.86-.53-1.63-1.32-1.95l-10.5-4.2c-.5-.2-1.06-.2-1.56,0h0Zm9.13,7.55c-.34,4.44-2.38,10.21-8.35,13.1v-16.44s8.35,3.34,8.35,3.34Z"/><rect class="cls-1" x="20.66" y="44.49" width=".31" height=".31"/></g></svg>