<svg width="64" height="46" viewBox="0 0 64 46" fill="none" xmlns="http://www.w3.org/2000/svg">
<g clip-path="url(#clip0_1_368)">
<path d="M39.4009 20.0239C38.2729 20.0239 37.3579 20.9466 37.3579 22.0841C37.3579 23.2216 38.2729 24.1443 39.4009 24.1443C40.5289 24.1443 41.4439 23.2216 41.4439 22.0841C41.4439 20.9466 40.5289 20.0239 39.4009 20.0239Z" fill="black"/>
<path d="M39.4009 31.4713C38.2729 31.4713 37.3579 32.394 37.3579 33.5315C37.3579 34.669 38.2729 35.5917 39.4009 35.5917C40.5289 35.5917 41.4439 34.669 41.4439 33.5315C41.4439 32.394 40.5289 31.4713 39.4009 31.4713Z" fill="black"/>
<path d="M53.76 19.6235C54.17 18.5445 54.4 17.3647 54.4 16.1345C54.4 10.7899 50.1 6.45378 44.8 6.45378C42.83 6.45378 40.99 7.05882 39.47 8.08739C36.7 3.24706 31.53 0 25.6 0C16.76 0 9.6 7.22017 9.6 16.1345C9.6 16.4067 9.61 16.679 9.62 16.9513C4.02 18.9378 0 24.3227 0 30.6555C0 38.6723 6.45 45.1765 14.4 45.1765H51.2C58.27 45.1765 64 39.3983 64 32.2689C64 26.0269 59.6 20.8134 53.76 19.6235ZM45.069 34.3543C45.069 36.0908 43.673 37.4995 41.95 37.4995H20.969C19.247 37.4995 17.85 36.0918 17.85 34.3543V32.7086C17.85 30.9721 19.246 29.5634 20.969 29.5634H41.95C43.672 29.5634 45.069 30.9711 45.069 32.7086V34.3543ZM45.069 22.9059C45.069 24.6424 43.673 26.0511 41.95 26.0511H20.969C19.247 26.0511 17.85 24.6434 17.85 22.9059V21.2602C17.85 19.5237 19.246 18.115 20.969 18.115H41.95C43.672 18.115 45.069 19.5227 45.069 21.2602V22.9059Z" fill="black"/>
</g>
<defs>
<clipPath id="clip0_1_368">
<rect width="64" height="45.1765" fill="white"/>
</clipPath>
</defs>
</svg>
