<svg width="72" height="51" viewBox="0 0 72 51" fill="none" xmlns="http://www.w3.org/2000/svg">
<g clip-path="url(#clip0_1_322)">
<path d="M43.2 7.2V32.4H7.2V7.2H43.2ZM7.2 0C3.22875 0 0 3.22875 0 7.2V32.4C0 36.3712 3.22875 39.6 7.2 39.6H20.3962L19.1925 43.2H10.8C8.80875 43.2 7.2 44.8087 7.2 46.8C7.2 48.7912 8.80875 50.4 10.8 50.4H39.6C41.5912 50.4 43.2 48.7912 43.2 46.8C43.2 44.8087 41.5912 43.2 39.6 43.2H31.1962L29.9925 39.6H43.2C47.1712 39.6 50.4 36.3712 50.4 32.4V7.2C50.4 3.22875 47.1712 0 43.2 0H7.2ZM59.4 0C56.4187 0 54 2.41875 54 5.4V45C54 47.9812 56.4187 50.4 59.4 50.4H66.6C69.5812 50.4 72 47.9812 72 45V5.4C72 2.41875 69.5812 0 66.6 0H59.4ZM61.2 7.2H64.8C65.79 7.2 66.6 8.01 66.6 9C66.6 9.99 65.79 10.8 64.8 10.8H61.2C60.21 10.8 59.4 9.99 59.4 9C59.4 8.01 60.21 7.2 61.2 7.2ZM59.4 16.2C59.4 15.21 60.21 14.4 61.2 14.4H64.8C65.79 14.4 66.6 15.21 66.6 16.2C66.6 17.19 65.79 18 64.8 18H61.2C60.21 18 59.4 17.19 59.4 16.2ZM63 34.2C64.9879 34.2 66.6 35.8121 66.6 37.8C66.6 39.7879 64.9879 41.4 63 41.4C61.0121 41.4 59.4 39.7879 59.4 37.8C59.4 35.8121 61.0121 34.2 63 34.2Z" fill="black"/>
</g>
<defs>
<clipPath id="clip0_1_322">
<rect width="72" height="50.4" fill="white"/>
</clipPath>
</defs>
</svg>
